<svg width="304" height="105" viewBox="0 0 304 105" fill="none" xmlns="http://www.w3.org/2000/svg">
<path d="M102.151 83V41.7354H94.6367V35.4512H102.151V30.5732C102.151 25.4756 103.514 21.5352 106.238 18.752C108.963 15.9688 112.815 14.5771 117.796 14.5771C119.671 14.5771 121.531 14.8262 123.377 15.3242L122.938 21.916C121.561 21.6523 120.096 21.5205 118.543 21.5205C115.906 21.5205 113.87 22.2969 112.435 23.8496C110.999 25.373 110.281 27.5703 110.281 30.4414V35.4512H120.433V41.7354H110.281V83H102.151ZM140.472 23.9375V35.4512H149.349V41.7354H140.472V71.2227C140.472 73.127 140.867 74.5625 141.658 75.5293C142.449 76.4668 143.797 76.9355 145.701 76.9355C146.639 76.9355 147.928 76.7598 149.568 76.4082V83C147.43 83.5859 145.35 83.8789 143.328 83.8789C139.695 83.8789 136.956 82.7803 135.11 80.583C133.265 78.3857 132.342 75.2656 132.342 71.2227V41.7354H123.685V35.4512H132.342V23.9375H140.472ZM168.641 76.1006H198.963V83H160.159V19.0156H168.641V76.1006ZM205.159 58.7861C205.159 54.1279 206.067 49.9385 207.884 46.2178C209.729 42.4971 212.278 39.626 215.53 37.6045C218.812 35.583 222.547 34.5723 226.736 34.5723C233.211 34.5723 238.44 36.8135 242.425 41.2959C246.438 45.7783 248.445 51.7402 248.445 59.1816V59.7529C248.445 64.3818 247.552 68.542 245.765 72.2334C244.007 75.8955 241.473 78.752 238.162 80.8027C234.881 82.8535 231.102 83.8789 226.824 83.8789C220.379 83.8789 215.149 81.6377 211.136 77.1553C207.151 72.6729 205.159 66.7402 205.159 59.3574V58.7861ZM213.333 59.7529C213.333 65.0264 214.549 69.2598 216.98 72.4531C219.441 75.6465 222.723 77.2432 226.824 77.2432C230.955 77.2432 234.236 75.6318 236.668 72.4092C239.1 69.1572 240.315 64.6162 240.315 58.7861C240.315 53.5713 239.07 49.3525 236.58 46.1299C234.119 42.8779 230.838 41.252 226.736 41.252C222.723 41.252 219.485 42.8486 217.024 46.042C214.563 49.2354 213.333 53.8057 213.333 59.7529ZM256.707 58.8301C256.707 51.418 258.421 45.5293 261.849 41.1641C265.276 36.7695 269.817 34.5723 275.472 34.5723C281.272 34.5723 285.799 36.623 289.051 40.7246L289.446 35.4512H296.873V81.8574C296.873 88.0098 295.042 92.8584 291.38 96.4033C287.747 99.9482 282.854 101.721 276.702 101.721C273.274 101.721 269.92 100.988 266.639 99.5234C263.357 98.0586 260.853 96.0518 259.124 93.5029L263.343 88.625C266.829 92.9316 271.092 95.085 276.131 95.085C280.086 95.085 283.162 93.9717 285.359 91.7451C287.586 89.5186 288.699 86.3838 288.699 82.3408V78.2539C285.447 82.0039 281.009 83.8789 275.384 83.8789C269.817 83.8789 265.306 81.6377 261.849 77.1553C258.421 72.6729 256.707 66.5645 256.707 58.8301ZM264.881 59.7529C264.881 65.1143 265.979 69.333 268.177 72.4092C270.374 75.4561 273.45 76.9795 277.405 76.9795C282.532 76.9795 286.297 74.6504 288.699 69.9922V48.2832C286.209 43.7422 282.474 41.4717 277.493 41.4717C273.538 41.4717 270.447 43.0098 268.221 46.0859C265.994 49.1621 264.881 53.7178 264.881 59.7529Z" fill="#E43F7E"/>
<path d="M82.19 83H87.8565V76.1163H74.5V41.7717L87.7309 41.7717L87.7308 35.5H82.0105L82.0105 30.3849L74.5 30.358L74.5 24.6735L66.55 24.6556L66.55 30.34L59.3125 30.3131V35.5L53.664 35.5L53.664 41.664L66.5 41.7717L66.5 76.1163H53.7897V83H59.5L59.4921 87.1177L66.5 87.1446V92.829L74.5 92.847V87.1625L82.19 87.1894V83Z" fill="#E43F7E"/>
<path d="M15.9082 76.1006H46.2305V83H7.42676V19.0156H15.9082V76.1006Z" fill="#E43F7E"/>
</svg>
